<svg width="30" height="30" viewBox="0 0 30 30" fill="none" xmlns="http://www.w3.org/2000/svg">
<path d="M29.1964 9.375H0.803571C0.359799 9.375 0 9.06018 0 8.67188V6.5625C0 5.00918 1.43906 3.75 3.21429 3.75H6.42857V0.703125C6.42857 0.314824 6.78837 0 7.23214 0H9.91071C10.3545 0 10.7143 0.314824 10.7143 0.703125V3.75H19.2857V0.703125C19.2857 0.314824 19.6455 0 20.0893 0H22.7679C23.2116 0 23.5714 0.314824 23.5714 0.703125V3.75H26.7857C28.5609 3.75 30 5.00918 30 6.5625V8.67188C30 9.06018 29.6402 9.375 29.1964 9.375ZM0.803571 11.25H29.1964C29.6402 11.25 30 11.5648 30 11.9531V27.1875C30 28.7408 28.5609 30 26.7857 30H3.21429C1.43906 30 0 28.7408 0 27.1875V11.9531C0 11.5648 0.359799 11.25 0.803571 11.25ZM23.1225 16.8719L21.2362 15.2079C20.9237 14.9323 20.4149 14.9304 20.0998 15.204L12.9991 21.3671L9.92009 18.6512C9.60757 18.3755 9.09871 18.3737 8.78364 18.6472L6.88205 20.2978C6.56699 20.5712 6.56491 21.0164 6.8775 21.2921L12.4088 26.1711C12.7213 26.4468 13.2301 26.4486 13.5452 26.1751L23.1179 17.8662C23.433 17.5928 23.4351 17.1476 23.1225 16.8719Z" fill="black" fill-opacity="0.5"/>
</svg>
