<svg width="30" height="28" viewBox="0 0 30 28" fill="none" xmlns="http://www.w3.org/2000/svg">
<path d="M8.43748 11.1875C7.40037 11.1875 6.56248 12.0254 6.56248 13.0625C6.56248 14.0996 7.40037 14.9375 8.43748 14.9375C9.47459 14.9375 10.3125 14.0996 10.3125 13.0625C10.3125 12.0254 9.47459 11.1875 8.43748 11.1875ZM15 11.1875C13.9629 11.1875 13.125 12.0254 13.125 13.0625C13.125 14.0996 13.9629 14.9375 15 14.9375C16.0371 14.9375 16.875 14.0996 16.875 13.0625C16.875 12.0254 16.0371 11.1875 15 11.1875ZM21.5625 11.1875C20.5254 11.1875 19.6875 12.0254 19.6875 13.0625C19.6875 14.0996 20.5254 14.9375 21.5625 14.9375C22.5996 14.9375 23.4375 14.0996 23.4375 13.0625C23.4375 12.0254 22.5996 11.1875 21.5625 11.1875ZM15 0.875C6.71483 0.875 -1.74884e-05 6.33008 -1.74884e-05 13.0625C-1.74884e-05 15.8516 1.166 18.4062 3.09959 20.4629C2.22655 22.7715 0.410139 24.7285 0.380842 24.752C-0.00587686 25.1621 -0.111346 25.7598 0.111311 26.2754C0.333967 26.791 0.843732 27.125 1.40623 27.125C5.00975 27.125 7.85155 25.6191 9.55662 24.4121C11.25 24.9453 13.0781 25.25 15 25.25C23.2851 25.25 30 19.7949 30 13.0625C30 6.33008 23.2851 0.875 15 0.875ZM15 22.4375C13.4355 22.4375 11.8887 22.1973 10.4062 21.7285L9.07615 21.3066L7.93358 22.1152C7.09569 22.707 5.94725 23.3691 4.56444 23.8145C4.99217 23.1055 5.40819 22.3086 5.73045 21.459L6.35155 19.8125L5.14451 18.5352C4.08397 17.4043 2.81248 15.5352 2.81248 13.0625C2.81248 7.89453 8.27928 3.6875 15 3.6875C21.7207 3.6875 27.1875 7.89453 27.1875 13.0625C27.1875 18.2305 21.7207 22.4375 15 22.4375Z" fill="#050505" fill-opacity="0.5"/>
</svg>
