<svg width="30" height="28" viewBox="0 0 30 28" fill="none" xmlns="http://www.w3.org/2000/svg">
<path d="M14.6026 7.68711L5.00004 16.5846V26.1875C5.00004 26.4362 5.08784 26.6746 5.24412 26.8504C5.4004 27.0262 5.61236 27.125 5.83337 27.125L11.6698 27.108C11.8901 27.1068 12.101 27.0075 12.2564 26.8318C12.4118 26.6561 12.499 26.4183 12.499 26.1705V20.5625C12.499 20.3139 12.5868 20.0754 12.7431 19.8996C12.8993 19.7238 13.1113 19.625 13.3323 19.625H16.6656C16.8867 19.625 17.0986 19.7238 17.2549 19.8996C17.4112 20.0754 17.499 20.3139 17.499 20.5625V26.1664C17.4986 26.2898 17.5199 26.412 17.5617 26.5261C17.6034 26.6402 17.6647 26.7439 17.7421 26.8312C17.8195 26.9186 17.9115 26.9879 18.0128 27.0352C18.1141 27.0825 18.2226 27.1068 18.3323 27.1068L24.1667 27.125C24.3877 27.125 24.5996 27.0262 24.7559 26.8504C24.9122 26.6746 25 26.4362 25 26.1875V16.5781L15.3995 7.68711C15.2866 7.58476 15.146 7.52895 15.0011 7.52895C14.8561 7.52895 14.7155 7.58476 14.6026 7.68711ZM29.7708 13.7346L25.4167 9.69688V1.58105C25.4167 1.39457 25.3508 1.21573 25.2336 1.08387C25.1164 0.952009 24.9574 0.87793 24.7917 0.87793H21.875C21.7092 0.87793 21.5503 0.952009 21.4331 1.08387C21.3159 1.21573 21.25 1.39457 21.25 1.58105V5.83555L16.587 1.51953C16.1395 1.10526 15.578 0.878758 14.9985 0.878758C14.4189 0.878758 13.8574 1.10526 13.4099 1.51953L0.226089 13.7346C0.162802 13.7934 0.110441 13.8657 0.0719997 13.9473C0.0335581 14.029 0.00978879 14.1183 0.00204995 14.2103C-0.0056889 14.3022 0.00275437 14.395 0.0268973 14.4833C0.0510403 14.5716 0.0904097 14.6536 0.142756 14.7248L1.47088 16.5412C1.52308 16.6126 1.58729 16.6718 1.65984 16.7152C1.73238 16.7587 1.81183 16.7856 1.89363 16.7945C1.97544 16.8034 2.058 16.794 2.13659 16.7669C2.21517 16.7398 2.28824 16.6956 2.35161 16.6367L14.6026 5.28477C14.7155 5.18242 14.8561 5.12661 15.0011 5.12661C15.146 5.12661 15.2866 5.18242 15.3995 5.28477L27.651 16.6367C27.7143 16.6956 27.7872 16.7399 27.8657 16.7671C27.9442 16.7942 28.0267 16.8037 28.1084 16.795C28.1901 16.7863 28.2696 16.7596 28.3421 16.7163C28.4147 16.6731 28.4789 16.6142 28.5312 16.543L29.8594 14.7266C29.9117 14.655 29.9509 14.5725 29.9747 14.4838C29.9986 14.3952 30.0066 14.302 29.9984 14.2099C29.9902 14.1177 29.9658 14.0282 29.9268 13.9467C29.8877 13.8651 29.8347 13.793 29.7708 13.7346Z" fill="#656565"/>
</svg>
