<svg width="30" height="30" viewBox="0 0 30 30" fill="none" xmlns="http://www.w3.org/2000/svg">
<path d="M14.9994 30C17.3646 30 19.2831 28.3213 19.2831 26.25H10.7157C10.7157 28.3213 12.6342 30 14.9994 30ZM29.4228 21.2279C28.1291 20.0115 25.7083 18.1816 25.7083 12.1875C25.7083 7.63477 22.0601 3.99023 17.1409 3.09609V1.875C17.1409 0.839648 16.182 0 14.9994 0C13.8168 0 12.8579 0.839648 12.8579 1.875V3.09609C7.93866 3.99023 4.29045 7.63477 4.29045 12.1875C4.29045 18.1816 1.86969 20.0115 0.575937 21.2279C0.174152 21.6059 -0.0039733 22.0576 -0.000625088 22.5C0.00674098 23.4609 0.868571 24.375 2.14893 24.375H27.8498C29.1302 24.375 29.9927 23.4609 29.9994 22.5C30.0027 22.0576 29.8246 21.6053 29.4228 21.2279Z" fill="#FCFF5F"/>
</svg>
