<svg width="30" height="30" viewBox="0 0 30 30" fill="none" xmlns="http://www.w3.org/2000/svg">
<path d="M15 0.46875C6.71371 0.46875 0 6.97266 0 15C0 23.0273 6.71371 29.5312 15 29.5312C23.2863 29.5312 30 23.0273 30 15C30 6.97266 23.2863 0.46875 15 0.46875ZM15 6.09375C17.9395 6.09375 20.3226 8.40234 20.3226 11.25C20.3226 14.0977 17.9395 16.4062 15 16.4062C12.0605 16.4062 9.67742 14.0977 9.67742 11.25C9.67742 8.40234 12.0605 6.09375 15 6.09375ZM15 26.25C11.4496 26.25 8.26814 24.6914 6.13911 22.2539C7.27621 20.1797 9.50202 18.75 12.0968 18.75C12.2419 18.75 12.3871 18.7734 12.5262 18.8145C13.3125 19.0605 14.1351 19.2188 15 19.2188C15.8649 19.2188 16.6935 19.0605 17.4738 18.8145C17.6129 18.7734 17.7581 18.75 17.9032 18.75C20.498 18.75 22.7238 20.1797 23.8609 22.2539C21.7319 24.6914 18.5504 26.25 15 26.25Z" fill="black" fill-opacity="0.5"/>
</svg>
